<?xml version="1.0" encoding="UTF-8"?>
<svg version="1.1" xmlns="http://www.w3.org/2000/svg" width="72" height="48" viewBox="50 0 900 900">
<path d="M0 0 C1.9507153 -0.00050947 3.9014308 -0.00276951 5.85214233 -0.00663757 C11.12012462 -0.01203189 16.38775192 0.00728279 21.65567064 0.03146338 C27.1724844 0.05282118 32.68929771 0.05216683 38.20614624 0.05415344 C47.45780521 0.06058828 56.70933133 0.08179568 65.9609375 0.11328125 C77.8510097 0.15369188 89.74099575 0.17098815 101.63112831 0.18059063 C111.84907007 0.18887582 122.06699346 0.20610984 132.28491926 0.22562814 C135.57427998 0.23170129 138.8636414 0.23684025 142.15300369 0.2419796 C147.3060065 0.25073489 152.45896617 0.26501665 157.61194229 0.2836895 C159.50789416 0.28983098 161.40385237 0.29427054 163.29981232 0.29693222 C165.87599272 0.30088996 168.4520742 0.31098421 171.02822876 0.32279968 C171.78822036 0.32261532 172.54821197 0.32243096 173.33123362 0.32224101 C178.47707091 0.35573302 178.47707091 0.35573302 179.59130859 1.4699707 C179.7480137 3.07795083 179.84410681 4.69188971 179.91552734 6.3059082 C182.7662389 59.03583296 203.76931193 106.57401094 242.60253906 142.68823242 C279.6367259 175.86715404 329.62960319 193.24728596 379.21630859 191.3449707 C431.32711726 188.38024198 479.70324807 165.20388171 514.59130859 126.4699707 C544.13675567 91.92270202 559.28090869 49.75093639 561.3894043 4.56347656 C561.59130859 2.4699707 561.59130859 2.4699707 562.59130859 0.4699707 C588.34767197 0.37644777 614.10400983 0.30595243 639.86050892 0.26272202 C651.82023107 0.2421141 663.7798476 0.21402726 675.73950195 0.16821289 C686.16592773 0.12829104 696.59227699 0.10252502 707.01877707 0.09361672 C712.53737754 0.08841107 718.05575914 0.0762126 723.57428932 0.04705048 C728.7740196 0.01979698 733.97344192 0.01154579 739.17323685 0.01753998 C741.07628875 0.01644418 742.97935149 0.00854979 744.88234138 -0.0068512 C759.2769936 -0.11758311 770.68696124 1.06033855 781.59130859 11.4699707 C792.61953023 23.02230585 793.17231331 35.22708298 793.04541016 50.34375 C793.04428021 52.23697384 793.04491841 54.13019942 793.04718018 56.02342224 C793.0483225 61.13433386 793.02489147 66.24486594 792.99688435 71.35568976 C792.97179006 76.70746901 792.96952238 82.05925804 792.96478271 87.41108704 C792.95237648 97.53268759 792.91958676 107.65411424 792.87938476 117.7756384 C792.83459374 129.30406553 792.81266159 140.83250119 792.79260302 152.36099374 C792.75085201 176.06408228 792.68054581 199.76701672 792.59130859 223.4699707 C788.99316437 221.35791905 785.88431264 219.12642745 782.71630859 216.4074707 C745.80198951 185.96674706 697.76422631 174.4316607 650.65234375 177.67211914 C607.33754344 182.08265596 564.43398026 204.12161149 536.34130859 237.4074707 C511.2816255 268.71083755 496.45346585 305.74669081 496.35107422 346.09326172 C496.34146288 348.37090942 496.3104156 350.64761558 496.27880859 352.92504883 C496.21400055 362.06508528 497.03367454 370.64507943 498.84619141 379.60498047 C499.60901495 383.56181518 500.10884374 387.47086701 500.59130859 391.4699707 C451.17138399 391.53845089 401.7514561 391.60213249 352.33149719 391.63934326 C351.5999523 391.63989549 350.8684074 391.64044772 350.11469448 391.64101668 C334.21587913 391.65298858 318.31706328 391.66406927 302.41824667 391.67423202 C294.6213603 391.67922132 286.82447406 391.68440755 279.02758789 391.68969727 C278.25170804 391.6902203 277.47582819 391.69074334 276.67643683 391.69128222 C251.53236424 391.70832463 226.38832764 391.73836764 201.24427685 391.77515959 C175.40338739 391.81290246 149.56251784 391.83751538 123.72160128 391.84563066 C120.07093474 391.84678327 116.42026827 391.84808581 112.76960182 391.84947968 C112.05110523 391.84974937 111.33260863 391.85001906 110.59233941 391.85029692 C99.03107812 391.85502199 87.46987842 391.87356936 75.90864224 391.89729884 C64.28292178 391.92086521 52.65727738 391.92951467 41.03153231 391.92397621 C34.733545 391.92141163 28.43573833 391.92537177 22.13778305 391.9467926 C16.37057682 391.96626505 10.60367263 391.96723587 4.83645246 391.95356628 C2.75147308 391.95187693 0.66647481 391.95694498 -1.41846744 391.96950343 C-16.28332986 392.05382511 -28.12240704 391.24421192 -39.40869141 380.4699707 C-48.85837212 370.57119625 -51.01270822 360.08969927 -50.91662598 346.7310791 C-50.9212441 345.37235902 -50.92760309 344.01364395 -50.93553495 342.65493917 C-50.95212671 338.94977274 -50.94402876 335.24502206 -50.93159008 331.53985476 C-50.92249993 327.53295597 -50.93652888 323.52612619 -50.94750977 319.51924133 C-50.96525745 311.68100764 -50.96147178 303.84292752 -50.9498592 296.00468791 C-50.94081035 289.632034 -50.93960715 283.25942301 -50.94395447 276.88676453 C-50.9445674 275.97833702 -50.94518033 275.06990951 -50.94581184 274.1339539 C-50.94709079 272.28826081 -50.94838765 270.44256772 -50.9497022 268.59687465 C-50.96109701 251.30670392 -50.94801156 234.01661815 -50.92650074 216.72646135 C-50.90863076 201.90410553 -50.91173517 187.08187504 -50.93017578 172.25952148 C-50.95160192 155.02946425 -50.95999848 137.7994814 -50.94772673 120.56941271 C-50.94645259 118.73066744 -50.9451951 116.89192217 -50.94395447 115.05317688 C-50.94333737 114.1485773 -50.94272026 113.24397772 -50.94208446 112.31196603 C-50.93863679 105.95003982 -50.94444731 99.58816095 -50.95387268 93.22624207 C-50.96511344 85.46876108 -50.96200907 77.71144192 -50.9407497 69.95397937 C-50.93026714 65.99912927 -50.92606943 62.04454856 -50.93934631 58.0897007 C-50.95133448 54.46378087 -50.94460327 50.83837813 -50.92343611 47.21250468 C-50.9169069 45.29151465 -50.92984853 43.37048824 -50.94366503 41.4495368 C-50.83671308 29.54387889 -47.70143487 20.15682474 -39.40869141 11.4699707 C-27.70802023 0.30014283 -15.30097418 -0.11135922 0 0 Z M-21.22119141 248.7199707 C-28.70433663 259.27556565 -29.00914457 269.96312598 -28.93994141 282.4387207 C-28.94264254 284.16784889 -28.94653011 285.89697559 -28.95153809 287.62609863 C-28.95740396 291.23354691 -28.94896501 294.84059648 -28.93017578 298.44799805 C-28.90738778 303.04415383 -28.92052664 307.63937493 -28.94446564 312.23549652 C-28.95900296 315.80115651 -28.95428154 319.36659928 -28.94395447 322.93226624 C-28.94130903 324.62573867 -28.94447898 326.31923161 -28.95387268 328.01268005 C-29.01404329 341.90447184 -27.3553332 353.05061722 -17.40869141 363.4699707 C-6.23969942 374.13224094 5.83472992 375.08290333 20.56005859 375.0012207 C22.28918678 375.00392184 24.01831348 375.0078094 25.74743652 375.01281738 C29.3548848 375.01868325 32.96193437 375.01024431 36.56933594 374.99145508 C41.16549172 374.96866708 45.76071282 374.98180594 50.35683441 375.00574493 C53.9224944 375.02028225 57.48793717 375.01556084 61.05360413 375.00523376 C62.74707656 375.00258833 64.4405695 375.00575828 66.13401794 375.01515198 C80.02580973 375.07532259 91.17195511 373.4166125 101.59130859 363.4699707 C112.25357883 352.30097872 113.20424122 340.22654937 113.12255859 325.5012207 C113.12525973 323.77209252 113.12914729 322.04296582 113.13415527 320.31384277 C113.14002114 316.7063945 113.1315822 313.09934493 113.11279297 309.49194336 C113.09000497 304.89578758 113.10314383 300.30056648 113.12708282 295.70444489 C113.14162015 292.1387849 113.13689873 288.57334213 113.12657166 285.00767517 C113.12392622 283.31420274 113.12709617 281.6207098 113.13648987 279.92726135 C113.19666048 266.03546956 111.53795039 254.88932419 101.59130859 244.4699707 C90.42231661 233.80770047 78.34788726 232.85703808 63.62255859 232.9387207 C61.89343041 232.93601957 60.16430371 232.932132 58.43518066 232.92712402 C54.82773239 232.92125815 51.22068282 232.9296971 47.61328125 232.94848633 C43.01712547 232.97127432 38.42190437 232.95813547 33.82578278 232.93419647 C30.26012279 232.91965915 26.69468002 232.92438057 23.12901306 232.93470764 C21.43554063 232.93735308 19.74204769 232.93418313 18.04859924 232.92478943 C1.77869185 232.8543183 -10.36711646 235.83795819 -21.22119141 248.7199707 Z M147.77880859 248.7199707 C140.29566337 259.27556565 139.99085543 269.96312598 140.06005859 282.4387207 C140.05735746 284.16784889 140.05346989 285.89697559 140.04846191 287.62609863 C140.04259604 291.23354691 140.05103499 294.84059648 140.06982422 298.44799805 C140.09261222 303.04415383 140.07947336 307.63937493 140.05553436 312.23549652 C140.04099704 315.80115651 140.04571846 319.36659928 140.05604553 322.93226624 C140.05869097 324.62573867 140.05552102 326.31923161 140.04612732 328.01268005 C139.98595671 341.90447184 141.6446668 353.05061722 151.59130859 363.4699707 C162.76030058 374.13224094 174.83472992 375.08290333 189.56005859 375.0012207 C191.28918678 375.00392184 193.01831348 375.0078094 194.74743652 375.01281738 C198.3548848 375.01868325 201.96193437 375.01024431 205.56933594 374.99145508 C210.16549172 374.96866708 214.76071282 374.98180594 219.35683441 375.00574493 C222.9224944 375.02028225 226.48793717 375.01556084 230.05360413 375.00523376 C231.74707656 375.00258833 233.4405695 375.00575828 235.13401794 375.01515198 C249.02580973 375.07532259 260.17195511 373.4166125 270.59130859 363.4699707 C281.25357883 352.30097872 282.20424122 340.22654937 282.12255859 325.5012207 C282.12525973 323.77209252 282.12914729 322.04296582 282.13415527 320.31384277 C282.14002114 316.7063945 282.1315822 313.09934493 282.11279297 309.49194336 C282.09000497 304.89578758 282.10314383 300.30056648 282.12708282 295.70444489 C282.14162015 292.1387849 282.13689873 288.57334213 282.12657166 285.00767517 C282.12392622 283.31420274 282.12709617 281.6207098 282.13648987 279.92726135 C282.19666048 266.03546956 280.53795039 254.88932419 270.59130859 244.4699707 C259.42231661 233.80770047 247.34788726 232.85703808 232.62255859 232.9387207 C230.89343041 232.93601957 229.16430371 232.932132 227.43518066 232.92712402 C223.82773239 232.92125815 220.22068282 232.9296971 216.61328125 232.94848633 C212.01712547 232.97127432 207.42190437 232.95813547 202.82578278 232.93419647 C199.26012279 232.91965915 195.69468002 232.92438057 192.12901306 232.93470764 C190.43554063 232.93735308 188.74204769 232.93418313 187.04859924 232.92478943 C170.77869185 232.8543183 158.63288354 235.83795819 147.77880859 248.7199707 Z M320.77880859 248.7199707 C313.29566337 259.27556565 312.99085543 269.96312598 313.06005859 282.4387207 C313.05735746 284.16784889 313.05346989 285.89697559 313.04846191 287.62609863 C313.04259604 291.23354691 313.05103499 294.84059648 313.06982422 298.44799805 C313.09261222 303.04415383 313.07947336 307.63937493 313.05553436 312.23549652 C313.04099704 315.80115651 313.04571846 319.36659928 313.05604553 322.93226624 C313.05869097 324.62573867 313.05552102 326.31923161 313.04612732 328.01268005 C312.98595671 341.90447184 314.6446668 353.05061722 324.59130859 363.4699707 C335.76030058 374.13224094 347.83472992 375.08290333 362.56005859 375.0012207 C364.28918678 375.00392184 366.01831348 375.0078094 367.74743652 375.01281738 C371.3548848 375.01868325 374.96193437 375.01024431 378.56933594 374.99145508 C383.16549172 374.96866708 387.76071282 374.98180594 392.35683441 375.00574493 C395.9224944 375.02028225 399.48793717 375.01556084 403.05360413 375.00523376 C404.74707656 375.00258833 406.4405695 375.00575828 408.13401794 375.01515198 C422.02580973 375.07532259 433.17195511 373.4166125 443.59130859 363.4699707 C454.25357883 352.30097872 455.20424122 340.22654937 455.12255859 325.5012207 C455.12525973 323.77209252 455.12914729 322.04296582 455.13415527 320.31384277 C455.14002114 316.7063945 455.1315822 313.09934493 455.11279297 309.49194336 C455.09000497 304.89578758 455.10314383 300.30056648 455.12708282 295.70444489 C455.14162015 292.1387849 455.13689873 288.57334213 455.12657166 285.00767517 C455.12392622 283.31420274 455.12709617 281.6207098 455.13648987 279.92726135 C455.19666048 266.03546956 453.53795039 254.88932419 443.59130859 244.4699707 C432.42231661 233.80770047 420.34788726 232.85703808 405.62255859 232.9387207 C403.89343041 232.93601957 402.16430371 232.932132 400.43518066 232.92712402 C396.82773239 232.92125815 393.22068282 232.9296971 389.61328125 232.94848633 C385.01712547 232.97127432 380.42190437 232.95813547 375.82578278 232.93419647 C372.26012279 232.91965915 368.69468002 232.92438057 365.12901306 232.93470764 C363.43554063 232.93735308 361.74204769 232.93418313 360.04859924 232.92478943 C343.77869185 232.8543183 331.63288354 235.83795819 320.77880859 248.7199707 Z " fill="white" transform="translate(129.40869140625,364.530029296875)"/>
<path d="M0 0 C1.1551561 -0.01469078 1.1551561 -0.01469078 2.33364868 -0.02967834 C53.99015654 -0.55119573 98.48594343 15.60200164 135.71484375 51.86328125 C164.02258554 80.25539783 183.68405479 122.33021469 183.91796875 162.69921875 C183.92366882 163.48865875 183.9293689 164.27809875 183.9352417 165.09146118 C183.94463336 166.75708707 183.95120227 168.42273105 183.95507812 170.08837891 C183.96468522 172.57229397 183.99572291 175.05534434 184.02734375 177.5390625 C184.12259652 191.90937512 182.25353996 205.77319205 178.52734375 219.67578125 C178.21651855 220.83762939 178.21651855 220.83762939 177.89941406 222.02294922 C165.95641962 264.52595886 135.99974045 302.39147556 97.6484375 324.1171875 C74.21340337 336.93742423 48.40806399 346.19138883 21.4296875 346.4765625 C20.65958344 346.48635635 19.88947937 346.49615021 19.09603882 346.50624084 C-32.56046904 347.02775823 -77.05625593 330.87456086 -114.28515625 294.61328125 C-142.59855637 266.21548948 -162.09726666 224.29795861 -162.5234375 183.953125 C-162.53318604 183.18288498 -162.54293457 182.41264496 -162.55297852 181.61906433 C-162.78511145 158.52256268 -161.21557242 137.12250887 -153.28515625 115.23828125 C-152.85589844 114.03558594 -152.42664063 112.83289063 -151.984375 111.59375 C-135.12129568 66.98971765 -101.28078032 32.88511566 -58.109375 13.30859375 C-39.92679921 5.34345013 -19.90687668 0.21042471 0 0 Z " fill="white" transform="translate(489.28515625,191.76171875)"/>
<path d="M0 0 C0.67181305 0.00215515 1.3436261 0.0043103 2.03579712 0.00653076 C45.1513991 0.2269927 84.73719339 16.62304941 115.484375 46.83642578 C127.43758333 58.97841126 135.89482716 73.93126864 142.9375 89.3125 C143.34871094 90.2096875 143.75992187 91.106875 144.18359375 92.03125 C153.32120631 114.50195481 153.81085106 141.99784991 147.9375 165.3125 C147.68226563 166.33472656 147.42703125 167.35695313 147.1640625 168.41015625 C141.32445895 188.31302521 128.4818343 207.11401194 110.28125 217.43359375 C96.91600671 224.65351986 83.0703842 228.36663125 67.80859375 228.5234375 C66.26366092 228.55148641 64.71873917 228.58015072 63.17382812 228.609375 C60.76896247 228.65067291 58.36430835 228.6876167 55.95922852 228.71386719 C53.61693282 228.74156688 51.27553831 228.78740353 48.93359375 228.8359375 C47.86461098 228.8408168 47.86461098 228.8408168 46.77403259 228.84579468 C41.26862824 228.98037914 37.0035841 230.17547739 33.1171875 234.1953125 C30.99040581 238.01225182 30.81450913 242.00098678 30.9375 246.3125 C32.13640438 249.48959661 33.61427566 251.8400338 35.51953125 254.625 C38.32904848 259.94992522 37.67847636 266.19014679 36.31640625 271.9296875 C33.81440689 278.89080573 29.44246306 284.52172612 24.9375 290.3125 C24.40253906 291.07820313 23.86757813 291.84390625 23.31640625 292.6328125 C22.86136719 293.18710937 22.40632812 293.74140625 21.9375 294.3125 C21.2775 294.3125 20.6175 294.3125 19.9375 294.3125 C19.9375 294.9725 19.9375 295.6325 19.9375 296.3125 C17.63671875 298.00390625 17.63671875 298.00390625 14.625 299.875 C13.63886719 300.49503906 12.65273438 301.11507813 11.63671875 301.75390625 C-2.60368266 309.97665612 -27.25028476 303.72641875 -42.44140625 299.72094727 C-63.67591424 293.75485219 -83.58808326 282.96814113 -100.0625 268.3125 C-100.89910156 267.59578125 -101.73570312 266.8790625 -102.59765625 266.140625 C-130.67011069 241.66942824 -148.50802468 207.24107383 -153.0625 170.3125 C-153.3049919 164.71130463 -153.30821245 159.10592972 -153.3125 153.5 C-153.31317474 152.71216125 -153.31384949 151.92432251 -153.31454468 151.11260986 C-153.29880999 139.57040632 -152.90148395 128.55396063 -150.0625 117.3125 C-149.89621094 116.62704102 -149.72992187 115.94158203 -149.55859375 115.23535156 C-139.85547444 75.97365583 -114.26799099 42.67708027 -79.8984375 21.734375 C-55.40064773 7.30933641 -28.41852499 -0.12529425 0 0 Z M-52.375 76 C-55.14711277 81.44155469 -55.87847569 86.60089884 -54.0625 92.5 C-52.09063636 96.92121892 -49.32832175 100.00018541 -45.0625 102.3125 C-40.09795259 103.73094212 -36.19316382 103.6461385 -31.25 102.1875 C-26.57723275 99.43881338 -23.12548776 96.37454485 -21.0625 91.3125 C-20.38176165 86.0723978 -20.40516742 81.6515108 -22.75 76.875 C-26.14793608 73.10971948 -29.44985127 69.5510802 -34.671875 69.07421875 C-42.77776164 68.88266173 -46.91763573 69.65765774 -52.375 76 Z M20.625 76.0625 C17.76995181 81.56111133 17.34525741 86.05312522 18.9375 91.9375 C20.78686846 96.73093037 23.36144564 99.90900229 27.9375 102.3125 C32.90665667 103.72428287 36.80270811 103.64735662 41.75 102.1875 C46.42276725 99.43881338 49.87451224 96.37454485 51.9375 91.3125 C52.61823835 86.0723978 52.59483258 81.6515108 50.25 76.875 C46.85206392 73.10971948 43.55014873 69.5510802 38.328125 69.07421875 C30.21333521 68.88245133 26.02775139 69.63760646 20.625 76.0625 Z M-94.6015625 133.0078125 C-97.86120735 137.50575818 -98.79356325 141.46258649 -98.48046875 146.98828125 C-97.54080228 152.21352936 -94.00551433 156.12765552 -89.890625 159.328125 C-85.50187235 161.6912995 -80.58112334 162.02209475 -75.81640625 160.6796875 C-71.07928566 158.54843098 -67.79814951 155.78901738 -65.0625 151.3125 C-63.74249659 146.35223875 -63.73382149 142.42635494 -65.1875 137.5 C-67.94472083 132.81272458 -71.00358465 129.4080726 -76.0625 127.3125 C-83.56836186 126.23125357 -89.4357056 127.31750313 -94.6015625 133.0078125 Z M65.625 133.9375 C61.98473216 139.06083993 62.36750383 144.17902014 62.9375 150.3125 C65.21403815 155.21581294 68.13564071 157.8662698 72.9375 160.3125 C79.04642772 161.94006104 83.32928001 161.44016115 88.9375 158.3125 C93.71035153 155.02453561 95.33945005 152.65869595 96.75 147.125 C97.02538227 141.52556045 96.09390757 136.69799475 92.24609375 132.44140625 C87.01701128 127.889157 83.64311029 126.95863414 76.69921875 127.03125 C71.54947444 127.55569355 68.92377603 130.19294342 65.625 133.9375 Z " fill="white" transform="translate(798.0625,560.6875)"/>
</svg>
