<?xml version="1.0" encoding="UTF-8"?>
<svg id="Layer_1" data-name="Layer 1" xmlns="http://www.w3.org/2000/svg" viewBox="0 0 500 500">
  <defs>
    <style>
      .cls-1 {
        fill: #fefefe;
      }

      .cls-1, .cls-2, .cls-3 {
        stroke-width: 0px;
      }

      .cls-2 {
        fill: white;
      }

      .cls-3 {
        fill: white;
      }
    </style>
  </defs>
  <path class="cls-3" d="m0,0c166.67,0,333.33,0,500,0,0,166.67,0,333.33,0,500-166.67,0-333.33,0-500,0C0,333.33,0,166.67,0,0Z"/>
  <path class="cls-2" d="m250.43,112.4c19.45.14,39.16,5.01,57.63,14.66,7.73,4.04,14.9,8.98,21.69,14.49,2.68,2.18,5.75,3.91,8.03,6.57,3.82,4.46,7.7,8.87,11.29,13.51,6.64,8.56,12.14,17.82,16.33,27.84,3.79,9.06,6.53,18.41,8.18,28.11,1.31,7.73,1.92,15.48,1.85,23.31-.11,13.05-2.46,25.7-6.3,38.13-.83,2.7-2.16,4.08-4.85,5.07-8.24,3.05-16.24,6.73-24.48,9.77-15.31,5.64-30.74,10.95-46.36,15.7-17.61,5.35-35.43,9.9-53.34,14.09-10.07,2.36-20.28,4.12-30.42,6.17-11.22,2.27-22.61,3.46-33.87,5.5-4.48.81-4.43.73-5.4-3.79-4.84-22.38-17.82-38.21-38.61-47.63-2.14-.97-2.62-2.96-3.38-4.6-1.62-3.51-2.59-7.28-3-11.2-.35-3.37-1.07-6.7-1.59-10.06-1.31-8.48-1.83-16.99-1.29-25.57.45-7.22,1.64-14.31,2.82-21.43.64-3.84,1.13-7.7,2.63-11.26,5.25-12.45,10.7-24.79,18.88-35.73,10.75-14.37,23.79-26.11,39.36-35.02,12.2-6.98,25.25-11.75,39.04-14.39,4.46-.86,8.99-1.43,13.55-1.81,3.41-.29,6.8-.26,11.62-.44Z"/>
  <path class="cls-2" d="m109.1,206.86c-.6,3.66-1.17,7.17-1.75,10.67-.15.89-.7,1.42-1.52,1.81-8.49,4-16.6,8.72-24.78,13.31-7.61,4.27-14.82,9.17-21.96,14.15-9,6.27-17.62,13.03-25.36,20.87-5.04,5.1-9.81,10.47-13.47,16.6-3.39,5.7-6.16,11.88-5.78,18.77.2,3.77.99,7.51,3.28,10.77,5.38,7.63,13.08,11.84,21.46,15.31,6.73,2.78,13.8,4.17,20.78,5.96,1.77.45,2.17-.13,2.45-1.71,1.57-8.82,5.85-16.32,11.67-22.98,3.99-4.56,9.07-7.83,14.43-10.4,5.78-2.77,12.07-4.21,18.54-4.24,13.17-.06,24.45,4.52,33.76,13.91,7.99,8.05,12.29,17.77,13.2,29.01,1.04,12.84-2.93,24.31-11.19,33.86-9.03,10.44-20.84,15.83-34.86,15.98-10.53.11-19.97-3.18-28.25-9.44-7.14-5.41-12.34-12.43-15.39-20.99-1.07-3-1.86-6.01-2.27-9.14-.17-1.31-.53-2.09-2.14-2.39-4.56-.85-9.08-1.92-13.57-3.11-5.54-1.46-10.66-4.11-16.02-6.09-5.79-2.14-10.48-6.06-15.32-9.68-2.65-1.99-4.32-5.02-6.23-7.72-4.11-5.8-5.97-12.27-4.98-19.43.11-.82.1-1.66.16-2.49.57-7.61,4.05-14.11,8.01-20.36,4.83-7.62,10.76-14.35,17.39-20.48,8.32-7.69,17.25-14.57,26.63-20.92,12.6-8.54,25.78-16.08,39.28-23.07,3.82-1.98,7.71-3.83,11.56-5.77.6-.3,1.18-.6,2.21-.58Z"/>
  <path class="cls-2" d="m381.11,288.52c1.74-4.47,3.45-8.96,5.23-13.42.43-1.07,1.13-1.84,2.32-2.38,10.47-4.67,20.41-10.37,30.35-16.04,13.34-7.61,26.09-16.11,37.93-25.94,3.2-2.66,6.25-5.45,9.28-8.29,5.76-5.4,11.01-11.27,14.84-18.16,2.77-4.97,5.2-10.21,5.43-16.11.25-6.4-1.96-11.86-6.41-16.43-.98-1.01-1.94-2.04-3.02-3.17-1.14,1.05-1.83,2.48-2.78,3.67-6.24,7.85-17.64,11.14-27.25,8.05-10.93-3.51-17.86-13.28-17.84-24.12,0-3.91.03-4-3.8-4.48-7.25-.9-14.48-1.86-21.82-1.79-4.98.05-9.96-.53-14.94-.5-7.9.04-15.82.03-23.68.7-3.2.28-4.85-.65-6.5-3-1.42-2.02-3.19-3.8-5.03-5.94,3.96-.84,7.72-.89,11.44-1.19,7.79-.62,15.61-.44,23.42-.67,6.72-.19,13.42.14,20.12.34,7.61.22,15.2,1.23,22.75,2.26,1.42.19,2.23-.1,3.11-1.24,6.51-8.44,15.28-11.67,25.55-9.73,9.63,1.81,16.09,7.83,19.27,17.19.81,2.39,1.23,4.84,1,7.36-.16,1.78.55,2.8,2.05,3.83,7.47,5.12,12.43,12.16,14.59,20.91.74,2.99.23,6.3.23,9.46,0,8.94-3.9,16.39-8.76,23.57-4.02,5.94-8.53,11.39-13.56,16.52-9.89,10.08-21.12,18.37-32.77,26.23-13.17,8.89-27.11,16.41-41.18,23.7-6.31,3.27-12.83,6.1-19.26,9.14-.11-.12-.23-.23-.34-.35Z"/>
  <path class="cls-2" d="m360.21,297.96c-.13,2.41-1.36,4.04-2.37,5.7-4.56,7.54-9.82,14.56-15.65,21.19-2.28,2.6-4.25,5.51-6.98,7.64-5.53,4.33-11.05,8.71-16.94,12.57-14.06,9.21-29.38,15.28-45.88,18.47-12.67,2.45-25.46,2.83-38.21,1.38-17.94-2.04-34.7-7.89-50.28-17.07-.73-.43-1.54-.94-1.32-1.89.2-.83,1.14-.48,1.74-.57,6.87-1.08,13.78-1.96,20.63-3.19,8.88-1.6,17.69-3.57,26.56-5.2,12.8-2.34,25.3-5.95,37.94-8.92,10-2.35,19.74-5.67,29.61-8.51,14.82-4.27,29.25-9.7,43.79-14.76,5.23-1.82,10.28-4.12,15.42-6.19.53-.21,1.09-.38,1.92-.66Z"/>
  <path class="cls-1" d="m244.61,298.87c-17.18-.82-32.95-5.59-46.31-16.85-4.34-3.66-7.95-8.01-10.89-12.89-1.3-2.16-1.69-4.67-2.7-6.95-.46-1.03.11-1.51,1.3-1.21,3.45.86,6.86,1.87,10.29,2.8,5.77,1.56,11.65,2.57,17.51,3.61,7.08,1.27,14.22,2.1,21.47,2.29,5.72.15,11.43.6,17.17.32,7.54-.37,15.1-.81,22.52-2.05,10.93-1.82,21.85-3.83,32.42-7.31.63-.21,1.41-1.01,2-.13.47.69-.08,1.47-.43,2.1-7.71,13.63-18.85,23.42-33.21,29.54-8.52,3.63-17.49,5.57-26.64,6.7-1.48.18-3,.03-4.49.03Z"/>
  <path class="cls-1" d="m297.4,203.16c0,4.33-1.01,8.35-3.46,11.96-4.23,6.23-11,7.19-16.59,2.19-3.68-3.29-5.92-7.49-7.04-12.31-.91-3.91-1.31-7.85-.71-11.82.69-4.58,2.12-8.95,5.86-11.95,4.32-3.46,8.65-3.18,13.73,1.55,5.83,5.44,8.05,12.54,8.21,20.37Z"/>
  <path class="cls-1" d="m228.06,196.39c.08,5.24-.88,10.28-3.31,14.9-1.88,3.56-4.41,6.61-8.3,8.26-4.45,1.89-9.19.66-12.18-3.25-3.58-4.68-4.54-10.08-4.16-15.77.41-6.04,2.74-11.35,6.47-16.1,1.97-2.5,4.51-4.16,7.5-5.05,3.96-1.19,8.04.78,10.64,4.98,2.27,3.69,3.12,7.78,3.34,12.03Z"/>
</svg>