<?xml version="1.0" encoding="UTF-8"?>
<svg version="1.1" xmlns="http://www.w3.org/2000/svg" width="72" height="48" viewBox="0 -170 990 990">
<path style="fill: white;" d="M0 0 C1.1864759 -0.00603194 2.37295181 -0.01206388 3.59538153 -0.0182786 C5.54105825 -0.01297019 5.54105825 -0.01297019 7.52604157 -0.00755453 C8.92865383 -0.01085534 10.33126426 -0.0150286 11.73387161 -0.01999474 C15.60042657 -0.03112791 19.46689294 -0.02978326 23.33345881 -0.02643955 C27.5355062 -0.02497801 31.73752856 -0.03502173 35.9395653 -0.04358959 C44.27937835 -0.05875603 52.61916579 -0.06313604 60.95899119 -0.0642477 C70.94630996 -0.06607436 80.933605 -0.07940764 90.92091357 -0.09294135 C115.06171137 -0.12507319 139.20250667 -0.13686939 163.34332201 -0.14643885 C174.76260937 -0.15110969 186.1818947 -0.15831489 197.60118048 -0.1658296 C236.68702505 -0.19150205 275.7728685 -0.21294 314.85872132 -0.2198348 C317.31268564 -0.22027807 319.76664996 -0.22072164 322.22061429 -0.22116551 C324.68052521 -0.22160679 327.14043612 -0.22204775 329.60034704 -0.2224884 C334.53539739 -0.22337351 339.47044774 -0.22426774 344.40549809 -0.22516775 C345.62910523 -0.22538653 346.85271238 -0.22560531 348.11339853 -0.22583073 C387.78847278 -0.23309191 427.46347394 -0.26493142 467.1385202 -0.31154848 C509.08049463 -0.36073904 551.02242729 -0.38818022 592.96443141 -0.39057064 C597.56856691 -0.39091355 602.1727024 -0.39134441 606.77683789 -0.3918395 C608.47735218 -0.39200681 608.47735218 -0.39200681 610.2122203 -0.3921775 C628.4578666 -0.39447897 646.70343792 -0.41652685 664.94905891 -0.44561362 C683.28864925 -0.47434461 701.62814345 -0.48081703 719.96775012 -0.46473366 C730.86259909 -0.45582147 741.75713776 -0.4635404 752.65194595 -0.49521067 C759.93307428 -0.51471782 767.21398533 -0.51234718 774.49511169 -0.49233822 C778.64152505 -0.48155913 782.7873428 -0.48011575 786.93370669 -0.50535566 C790.71373963 -0.52817296 794.49269711 -0.52283706 798.27269427 -0.49602151 C800.25641995 -0.48893196 802.24018644 -0.51099083 804.22378424 -0.53460407 C816.90084024 -0.38784673 828.42949137 3.8074856 838.00779301 12.255301 C838.73224613 12.81604319 839.45669926 13.37678537 840.20310551 13.95451975 C849.97222832 21.85260717 857.67269822 34.35144788 859.37434012 46.97438037 C859.50638114 49.80654984 859.52253077 52.61367426 859.48881108 55.44870615 C859.49393762 57.05538958 859.49393762 57.05538958 859.49916774 58.69453126 C859.50571247 62.25372301 859.48382629 65.81214651 859.46189457 69.3712678 C859.46076536 71.93443392 859.46140139 74.49760133 859.46366459 77.0607667 C859.464573 82.5636996 859.45328965 88.06638879 859.43071324 93.56927156 C859.39809385 101.5252896 859.38777611 109.48121609 859.38276127 117.43729375 C859.37402413 130.34795449 859.34745167 143.25851369 859.30955082 156.16911936 C859.27278967 168.70459599 859.24449805 181.24004496 859.22751957 193.77556467 C859.22646868 194.54929356 859.22541778 195.32302245 859.22433504 196.12019768 C859.21911459 200.00207905 859.21405983 203.88396062 859.20908743 207.76584232 C859.16767467 239.92906899 859.09726956 272.09217085 859.00779301 304.255301 C854.65589718 303.72589722 850.42736002 303.17188816 846.14841801 302.21233225 C838.8628783 300.86292577 831.57882292 300.91957136 824.19382817 300.93962717 C821.7758842 300.94277743 819.35917959 300.91928622 816.94138676 300.89397287 C806.89438949 300.85232749 797.80278092 301.85080419 788.00779301 304.255301 C787.04389652 304.47967844 786.08000004 304.70405588 785.08689457 304.93523264 C758.54128476 311.29682584 735.87108206 322.66007942 715.00779301 340.255301 C713.63687504 341.39612131 713.63687504 341.39612131 712.23826176 342.5599885 C684.8271707 366.22363393 667.96829595 402.7949919 663.00779301 438.255301 C662.85908514 440.99709152 662.75087775 443.71515189 662.69919926 446.458426 C662.68393696 447.24548929 662.66867466 448.03255259 662.65294987 448.84346628 C662.26933569 473.18661571 665.10467898 494.36890578 673.90623051 517.255301 C675.00779301 520.255301 675.00779301 520.255301 675.00779301 522.255301 C610.29509335 522.35815102 545.582384 522.45354614 480.86962467 522.50935984 C479.91166426 522.51018818 478.95370385 522.51101652 477.96671434 522.51186997 C457.1470262 522.52982794 436.32733719 522.54644895 415.50764688 522.56169298 C405.29749032 522.56917691 395.087334 522.57695625 384.87717777 522.58489084 C383.86115129 522.5856754 382.8451248 522.58645995 381.79830963 522.58726828 C348.87339101 522.61283064 315.94853422 522.65789421 283.02365306 522.71308432 C249.18551732 522.76970217 215.3474158 522.80661883 181.50923349 522.81879094 C176.72845501 522.82051984 171.94767665 522.82247366 167.16689831 522.82456446 C166.22598418 522.82496899 165.28507005 522.82537353 164.31564336 522.82579033 C149.17715339 522.83287718 134.03876928 522.86069617 118.90032246 522.8962932 C103.67642185 522.93164783 88.45262606 522.94510109 73.22868585 522.93630926 C64.18680214 522.93175015 55.14530247 522.9438726 46.10348819 522.98008626 C40.05729995 523.00264464 34.01136216 523.00324188 27.96515638 522.98629188 C24.52392871 522.97726426 21.08342541 522.97749034 17.64227652 523.00460009 C-0.19950201 523.12059623 -15.01304363 522.5845631 -28.99220699 510.255301 C-30.07888668 509.41418772 -30.07888668 509.41418772 -31.18751949 508.55608225 C-37.73716339 503.26086167 -42.33543376 496.82526405 -45.99220699 489.255301 C-46.33377439 488.54952225 -46.67534178 487.84374349 -47.02725971 487.11657751 C-50.71699976 478.36945773 -50.55538433 469.84683535 -50.50687069 460.54366159 C-50.51220188 458.75326382 -50.51927086 456.96287054 -50.52791774 455.17248571 C-50.54649608 450.27405656 -50.54025665 445.37593073 -50.52976471 440.47748923 C-50.52275902 435.18628771 -50.53878107 429.89514764 -50.55176204 424.60396433 C-50.57338463 414.24643413 -50.57327954 403.88901387 -50.5651365 393.53146853 C-50.55883195 385.11125528 -50.55997772 376.69107406 -50.56640857 368.27086115 C-50.56731023 367.07159816 -50.56821188 365.87233517 -50.56914086 364.63673087 C-50.5709921 362.20028424 -50.57285466 359.76383762 -50.57472842 357.32739101 C-50.59130097 334.4885207 -50.58259245 311.64971219 -50.56574284 288.8108456 C-50.55104791 267.92692615 -50.56567241 247.0431506 -50.59451301 226.15924968 C-50.62392243 204.70327751 -50.63487467 183.24737172 -50.62533081 161.79138029 C-50.62430828 159.36337766 -50.62331367 156.93537503 -50.6223473 154.50737238 C-50.62187091 153.31282265 -50.62139452 152.11827291 -50.62090369 150.8875247 C-50.61874153 142.48119227 -50.6285332 134.07492284 -50.64311832 125.66860437 C-50.66065469 115.41850084 -50.66050549 105.16858071 -50.63776667 94.91848435 C-50.62663623 89.69149728 -50.62343502 84.46483319 -50.64206737 79.2378602 C-50.65892403 74.44727669 -50.65245092 69.65729657 -50.62785058 64.86675178 C-50.62298389 63.13940706 -50.62643742 61.4120132 -50.63933802 59.6847098 C-50.75720776 42.66646246 -46.21771193 29.44422893 -34.52345699 16.5287385 C-25.52545675 7.76892062 -12.8792063 0.01300909 0 0 Z M-11.37501949 41.97014475 C-13.42706683 44.85116823 -13.42706683 44.85116823 -13.99220699 48.255301 C-14.65220699 48.255301 -15.31220699 48.255301 -15.99220699 48.255301 C-20.669673 57.89953246 -20.58059318 67.02129077 -20.52345699 77.47795725 C-20.52615777 79.23190128 -20.53004504 80.98584385 -20.53505367 82.73978281 C-20.54091966 86.39850362 -20.53247912 90.05683131 -20.51369137 93.71550608 C-20.49088641 98.38125744 -20.5040529 103.04608895 -20.52798122 107.71180677 C-20.54250368 111.32803769 -20.53780413 114.94405404 -20.52747005 118.56029177 C-20.52482142 120.27971048 -20.52800615 121.99914933 -20.53738827 123.71854448 C-20.57625587 132.83972858 -20.52713695 141.03868994 -15.99220699 149.255301 C-15.33220699 149.255301 -14.67220699 149.255301 -13.99220699 149.255301 C-13.78595699 149.935926 -13.57970699 150.616551 -13.36720699 151.317801 C-9.57429087 159.42084907 -2.81950488 164.58793869 5.51962974 167.62362904 C10.70166301 168.93919589 16.03216733 168.664304 21.3460241 168.63561773 C22.70442743 168.63905378 24.06282795 168.64380228 25.42122266 168.6497387 C29.15572386 168.66224717 32.8899966 168.65609894 36.62449884 168.64690502 C40.68676515 168.64019803 44.74899203 168.65085994 48.81124997 168.65930086 C55.93155214 168.67168089 63.05178843 168.67287444 70.17209774 168.66675043 C80.76031701 168.65766805 91.34847524 168.66568444 101.93668982 168.67704167 C120.84697197 168.69672412 139.75722674 168.69905294 158.66751669 168.69384647 C175.2179544 168.6892919 191.76838127 168.68988522 208.31881863 168.69568682 C210.53760812 168.69644368 212.7563976 168.69719966 214.97518709 168.69795476 C218.31858247 168.69909994 221.66197785 168.70024981 225.00537322 168.70141401 C256.09624725 168.71212168 287.18711765 168.71684154 318.27799278 168.70894384 C320.03659677 168.70849808 320.03659677 168.70849808 321.8307281 168.70804332 C331.35186834 168.70559431 340.87300854 168.70298276 350.39414874 168.70035919 C387.53320293 168.69025684 424.67221192 168.69861085 461.81125981 168.72185373 C503.5258624 168.74791783 545.24043776 168.76077648 586.9550488 168.75366598 C591.40180589 168.75294991 595.84856299 168.75227552 600.29532009 168.75162554 C601.93770711 168.75137082 601.93770711 168.75137082 603.61327365 168.75111096 C620.15183196 168.74880661 636.69036502 168.75679153 653.22891766 168.76991701 C672.0353079 168.78481559 690.84163892 168.78568845 709.64802787 168.7678461 C720.17484392 168.7582704 730.70152188 168.75974385 741.22832876 168.77708079 C748.25897107 168.7875523 755.28950797 168.78349523 762.32013987 168.76760075 C766.32663217 168.75895021 770.33285348 168.7565899 774.33933208 168.77187007 C777.98761211 168.78565284 781.63538924 168.78087307 785.28364002 168.76158488 C787.20671238 168.75611495 789.12981045 168.77016278 791.05283245 168.78511623 C801.70977417 168.69542199 810.49688545 166.55999199 818.34763676 159.06389475 C822.46147511 154.74580556 822.46147511 154.74580556 824.00779301 149.255301 C824.66779301 149.255301 825.32779301 149.255301 826.00779301 149.255301 C827.61134402 145.74753315 828.22816165 143.11175221 828.00779301 139.255301 C828.66779301 138.925301 829.32779301 138.595301 830.00779301 138.255301 C830.07762909 128.55341669 830.13077363 118.85162032 830.16322953 109.14953852 C830.17881503 104.64336053 830.19992152 100.13735585 830.23411137 95.63127756 C830.2669609 91.27405478 830.28469938 86.9169976 830.29242474 82.55966043 C830.2979227 80.90606442 830.30865743 79.25247638 830.32498318 77.59895182 C830.50421136 62.52219501 830.50421136 62.52219501 826.00779301 48.255301 C825.34779301 48.255301 824.68779301 48.255301 824.00779301 48.255301 C823.80154301 47.574676 823.59529301 46.894051 823.38279301 46.192801 C819.87889354 38.70719758 813.85726805 33.57000215 806.15007877 30.66969579 C800.00494248 28.68647061 793.94728143 28.84035039 787.54372078 28.87498426 C786.18384934 28.87154715 784.82398069 28.86679793 783.46411785 28.8608633 C779.73020914 28.84836983 775.99652931 28.85449628 772.26261963 28.86369697 C768.19927228 28.87040994 764.13596415 28.85973907 760.07262516 28.85130113 C752.95200537 28.83892683 745.83145146 28.83772509 738.71082455 28.84385157 C728.12220253 28.85293754 717.5336415 28.84491471 706.94502416 28.83356033 C688.03410164 28.81388269 669.12320652 28.81154808 650.21227621 28.81675553 C633.66249761 28.82131061 617.11272987 28.82071613 600.56295162 28.81491518 C598.34400736 28.81415832 596.12506309 28.81340234 593.90611882 28.81264723 C590.56248114 28.81150206 587.21884347 28.81035218 583.8752058 28.80918799 C552.78468625 28.79848122 521.69417033 28.7937596 490.60364968 28.80165815 C489.43138782 28.80195533 488.25912596 28.8022525 487.05134102 28.80255868 C477.53140304 28.80500768 468.01146511 28.80761923 458.49152718 28.81024281 C421.35231932 28.82034649 384.21315667 28.81198825 347.07395512 28.78874826 C305.35788995 28.76268659 263.641852 28.74982474 221.92577839 28.75693601 C217.47933565 28.75765209 213.03289291 28.75832648 208.58645016 28.75897646 C206.94418176 28.75923117 206.94418176 28.75923117 205.26873623 28.75949103 C188.72927153 28.76179568 172.18983208 28.75380918 155.65037304 28.74068499 C136.84507638 28.72578954 118.03983894 28.72490943 99.23454357 28.7427559 C88.70751214 28.75233447 78.18061878 28.75085229 67.65359651 28.73352121 C60.62412243 28.72305477 53.59475382 28.72709957 46.56529017 28.74300124 C42.55866252 28.75165722 38.55230598 28.75399891 34.54569197 28.73873193 C30.89847191 28.72496539 27.25175535 28.72970795 23.6045647 28.74901712 C21.67964094 28.75449652 19.75469156 28.74042543 17.82981798 28.72548577 C5.67315889 28.8280238 -3.63158996 32.36741717 -11.37501949 41.97014475 Z M70.00779301 369.880301 C69.31991703 370.23729074 68.63204106 370.59428049 67.92332035 370.96208811 C54.87369256 377.92505574 44.40159897 388.42975547 39.94529301 402.880301 C39.59675023 404.33044247 39.28232638 405.78934609 39.00779301 407.255301 C38.82861332 407.99393381 38.64943363 408.73256662 38.46482426 409.49358225 C36.13071141 423.59800773 38.04129116 437.7636425 45.00779301 450.255301 C45.66779301 450.255301 46.32779301 450.255301 47.00779301 450.255301 C47.19341801 451.100926 47.37904301 451.946551 47.57029301 452.817801 C51.89306401 463.15486209 64.93760799 470.87536905 74.98826176 475.005301 C91.62573095 480.9990482 109.82468535 480.03006895 126.00779301 473.255301 C128.01953928 472.27914684 130.0237674 471.28663139 132.00779301 470.255301 C132.00779301 469.595301 132.00779301 468.935301 132.00779301 468.255301 C132.8779102 468.03487131 133.74802738 467.81444162 134.64451176 467.58733225 C138.52589498 466.05010614 140.97155763 463.8853219 143.82029301 460.942801 C144.30949223 460.46907053 144.79869145 459.99534006 145.30271488 459.50725412 C148.21178646 456.56599366 149.66724282 454.41001325 150.00779301 450.255301 C150.66779301 450.255301 151.32779301 450.255301 152.00779301 450.255301 C152.97927352 448.44981363 153.93425812 446.63544799 154.88279301 444.817801 C155.41646488 443.80846506 155.95013676 442.79912912 156.49998051 441.75920725 C159.86229028 433.94575683 160.30380978 426.7439838 159.88279301 418.317801 C159.85958988 417.39289865 159.83638676 416.46799631 159.81248051 415.51506662 C159.20177456 401.89823247 151.85326467 388.60169345 142.00779301 379.255301 C136.59713615 374.72259978 130.65905954 371.40898826 124.32029301 368.380301 C123.70291264 368.08188303 123.08553227 367.78346506 122.4494434 367.47600412 C114.88321446 364.00861225 107.35019553 364.0733599 99.19529301 364.067801 C97.79440434 364.04943186 97.79440434 364.04943186 96.36521488 364.03069162 C86.80555164 364.01078948 78.5118648 365.43776362 70.00779301 369.880301 Z M205.63279301 380.395926 C194.79606964 392.79563832 190.19764623 404.97403897 189.44529301 421.192801 C189.40210942 422.0674299 189.35892582 422.94205881 189.31443363 423.84319162 C189.209324 425.98042095 189.10815316 428.11784338 189.00779301 430.255301 C189.66779301 430.255301 190.32779301 430.255301 191.00779301 430.255301 C190.88404301 431.327801 190.76029301 432.400301 190.63279301 433.505301 C190.56521368 439.76765216 194.02944679 444.93682561 197.00779301 450.255301 C197.66779301 450.255301 198.32779301 450.255301 199.00779301 450.255301 C199.06708988 450.96557444 199.12638676 451.67584787 199.18748051 452.40764475 C200.25979896 456.13012166 202.4054012 458.2140138 205.13279301 460.817801 C205.63198246 461.30450266 206.13117192 461.79120432 206.64548832 462.29265451 C210.24342201 465.72022709 213.55488633 468.11448048 218.00779301 470.255301 C219.01841801 470.915301 220.02904301 471.575301 221.07029301 472.255301 C235.00976678 479.94183795 253.44967893 480.82832635 268.70896488 476.86540842 C280.62681141 473.20480143 291.71996739 465.55160098 300.00779301 456.255301 C300.00779301 455.265301 300.00779301 454.275301 300.00779301 453.255301 C300.66779301 453.255301 301.32779301 453.255301 302.00779301 453.255301 C302.00779301 452.265301 302.00779301 451.275301 302.00779301 450.255301 C302.66779301 450.255301 303.32779301 450.255301 304.00779301 450.255301 C304.99868228 448.24018979 305.97498038 446.21790053 306.94529301 444.192801 C307.49056645 443.06744944 308.03583988 441.94209787 308.59763676 440.78264475 C313.31400841 428.98518325 312.62020407 410.95929406 308.00779301 399.255301 C300.55206345 385.05607622 290.78855941 375.2134515 276.25779301 368.317801 C275.64444096 368.02341135 275.03108891 367.7290217 274.39915043 367.42571115 C253.05537996 357.74097889 222.21295941 364.2598712 205.63279301 380.395926 Z M357.00779301 382.255301 C352.74129453 386.94076823 349.18390465 391.26634416 347.00779301 397.255301 C346.66619145 398.080301 346.32458988 398.905301 345.97263676 399.755301 C345.63361332 400.580301 345.29458988 401.405301 344.94529301 402.255301 C344.60369145 403.080301 344.26208988 403.905301 343.91013676 404.755301 C339.76234789 416.24701043 340.69940227 431.06251764 345.82224613 441.99309397 C353.34974151 457.65939405 363.32187262 468.52493881 379.94529301 474.692801 C381.6233531 475.24328981 383.31173195 475.76306072 385.00779301 476.255301 C386.05064457 476.60979319 387.09349613 476.96428537 388.16794926 477.32951975 C403.32553851 480.98399447 421.40354095 479.13254513 434.72849613 470.99919748 C441.23823644 466.82360982 447.77521624 462.36969832 452.38279301 456.067801 C453.13689457 455.05653147 453.13689457 455.05653147 453.90623051 454.02483225 C455.18395368 452.3197178 455.18395368 452.3197178 455.00779301 450.255301 C455.66779301 450.255301 456.32779301 450.255301 457.00779301 450.255301 C457.98967862 447.67297186 458.9683889 445.08951417 459.94529301 442.505301 C460.22308598 441.77569162 460.50087895 441.04608225 460.78708988 440.2943635 C461.05457035 439.58537912 461.32205082 438.87639475 461.59763676 438.145926 C461.84376713 437.49656076 462.0898975 436.84719553 462.34348637 436.17815256 C467.1889806 422.15275286 463.71943358 407.01106144 457.69529301 394.005301 C453.77489016 386.62147478 449.29498365 380.53256507 442.00779301 376.255301 C441.25240238 375.62494944 440.49701176 374.99459787 439.71873051 374.34514475 C436.83970839 372.12572568 434.05544121 370.65167976 430.75779301 369.130301 C429.70076176 368.63272287 428.64373051 368.13514475 427.55466801 367.6224885 C419.75747673 364.61696323 412.44889226 363.91963481 404.13279301 364.005301 C403.15826176 364.01424387 402.18373051 364.02318674 401.17966801 364.03240061 C383.59701533 364.31670456 369.8026266 369.86345429 357.00779301 382.255301 Z M516.62888676 380.47795725 C516.09392582 381.06448069 515.55896488 381.65100412 515.00779301 382.255301 C514.42126957 382.87276194 513.83474613 383.49022287 513.23044926 384.12639475 C501.78968012 397.36964831 499.01340596 413.33493724 500.00779301 430.255301 C501.6882377 442.62337389 510.30351201 457.32456535 520.12888676 464.8881135 C522.37548553 466.43776049 524.6636663 467.85837659 527.00779301 469.255301 C527.69486332 469.69744944 528.38193363 470.13959787 529.08982426 470.59514475 C543.2577241 479.24308361 560.69778056 480.66155536 576.77732426 477.40764475 C590.02057524 474.17076171 604.05942692 466.15788917 611.75388676 454.64201975 C613.16282282 452.40955544 613.16282282 452.40955544 613.00779301 450.255301 C613.66779301 450.255301 614.32779301 450.255301 615.00779301 450.255301 C617.04214831 446.52564961 618.00779301 444.58625058 618.00779301 440.255301 C618.66779301 439.925301 619.32779301 439.595301 620.00779301 439.255301 C624.33550374 426.03174044 623.16595165 410.03607185 618.00779301 397.255301 C615.63774846 393.00087677 612.98501454 389.1047554 610.00779301 385.255301 C609.30912113 384.33104319 608.61044926 383.40678537 607.89060551 382.45451975 C605.79267302 380.00403014 604.99734013 379.95286199 602.00779301 379.255301 C601.78091801 378.67006662 601.55404301 378.08483225 601.32029301 377.4818635 C597.66325399 371.27795803 586.12987566 367.29483059 579.44529301 365.255301 C557.63012875 360.66107483 532.98347733 364.4147625 516.62888676 380.47795725 Z " transform="translate(49.99220699071884,-0.25530099868774414)"/>
<path style="fill: white;" d="M0 0 C0.77577393 -0.00570007 1.55154785 -0.01140015 2.35083008 -0.01727295 C3.9879421 -0.02667267 5.62507261 -0.03323679 7.26220703 -0.03710938 C9.71552433 -0.04673967 12.16797509 -0.07777919 14.62109375 -0.109375 C27.96355828 -0.20023467 40.28450948 1.61446 52.9375 6.078125 C53.69812744 6.34222168 54.45875488 6.60631836 55.24243164 6.87841797 C56.74389324 7.4055759 58.24329253 7.93865681 59.74023438 8.47851562 C61.4513405 9.09544505 63.17024601 9.69067214 64.890625 10.28125 C93.20920337 20.88094135 117.41669503 44.4818385 129.99658203 71.66943359 C139.60072074 93.33367531 143.3788783 121.67673379 136.13671875 144.75 C127.91050331 165.23443507 116.35334024 181.79364114 95.75 191.203125 C86.59105097 194.71614655 77.23961433 196.2744586 67.4609375 196.4140625 C66.09373747 196.44210371 64.72655009 196.47076793 63.359375 196.5 C61.23535153 196.54133873 59.11157216 196.57829062 56.98730469 196.60449219 C54.91554142 196.63216659 52.84480241 196.67799109 50.7734375 196.7265625 C49.54544434 196.74638184 48.31745117 196.76620117 47.05224609 196.78662109 C43.48565641 197.23646599 41.60369098 198.05693956 38.75 200.203125 C35.84330693 204.36938507 35.34265373 207.46766404 36.16015625 212.3359375 C36.70128143 214.45191937 36.70128143 214.45191937 38.75 216.640625 C42.08258643 220.91050136 42.08894709 225.25229148 41.484375 230.515625 C38.97397093 241.41795123 30.6959809 251.57020878 21.7578125 257.96875 C11.14501936 264.49334656 -6.23458805 262.52752914 -18.15405273 260.17553711 C-21.58189286 259.35392548 -24.91213433 258.33308449 -28.25 257.203125 C-29.07693359 256.92936035 -29.90386719 256.6555957 -30.75585938 256.37353516 C-42.81430186 252.29884168 -53.69288805 247.30814921 -64.25 240.203125 C-65.22066406 239.55601562 -66.19132813 238.90890625 -67.19140625 238.2421875 C-94.44801025 219.24398557 -111.3696686 191.84283579 -120.25 160.203125 C-120.5591333 159.12091675 -120.5591333 159.12091675 -120.87451172 158.0168457 C-122.8089298 150.04707773 -122.62215368 141.87207164 -122.62060547 133.7199707 C-122.62494988 131.17004085 -122.66127868 128.62188747 -122.69921875 126.07226562 C-122.9260922 93.08195021 -107.93986754 61.66835898 -85.24609375 38.16796875 C-63.63040511 16.44118117 -30.93195825 0.18103415 0 0 Z M-34.0625 63.265625 C-36.91593544 67.09738116 -38.05319553 70.43061672 -38.25 75.203125 C-36.67567485 81.10684431 -34.02705501 83.74738308 -29.25 87.203125 C-26.03360522 88.81132239 -22.73855833 88.67173731 -19.25 88.203125 C-14.94257241 85.96657606 -11.60961622 83.46858509 -9.25 79.203125 C-8.42135365 74.59556556 -8.26011875 70.30615573 -10.28515625 66.00390625 C-13.44662741 61.80328858 -16.85145364 60.0696068 -22.01171875 59.2890625 C-26.9220714 59.10053238 -30.15175476 60.39774515 -34.0625 63.265625 Z M30.75 61.203125 C27.73885701 64.13502738 25.79302063 67.12586255 24.75 71.203125 C24.93592387 77.05972686 25.82242643 80.6386476 29.75 85.203125 C34.13373454 88.1256147 37.52777599 88.762649 42.75 88.203125 C48.08739473 86.21468383 51.20333824 83.29644852 53.75 78.203125 C54.32425085 73.49615083 54.20554552 70.08167708 52 65.828125 C48.90173605 62.21348372 47.17147676 60.55849419 42.5 59.390625 C38.20598926 59.17592446 34.70082842 59.45580873 30.75 61.203125 Z M-72.625 114.703125 C-74.90685567 119.61789105 -75.28403237 123.87862997 -74.25 129.203125 C-71.87203075 133.51415313 -68.78508972 136.30245387 -64.25 138.203125 C-59.31405095 138.76191169 -55.94962169 138.16752266 -51.828125 135.53125 C-47.92374832 132.24538843 -46.42560523 128.63305333 -45.8125 123.640625 C-46.46980239 118.47610619 -47.9377805 115.38732309 -51.8125 111.890625 C-59.01464879 106.90452199 -66.73160073 108.49954683 -72.625 114.703125 Z M66.75 113.203125 C63.96706138 117.0149076 62.3752718 120.55719523 62.75 125.328125 C63.53897341 129.30423853 65.08779234 132.10920799 67.75 135.203125 C72.1270494 138.12115793 75.53463771 138.84360809 80.75 138.203125 C84.92349214 136.52512301 88.74367189 134.32724389 90.75 130.203125 C92.26273178 124.12856145 91.99982614 119.72782944 88.75 114.203125 C84.16978546 109.95804811 81.18037329 108.82564249 75.06640625 108.93359375 C71.3488074 109.36616427 69.46864952 110.6741487 66.75 113.203125 Z " transform="translate(861.25,326.796875)"/>
</svg>
